<svg xmlns="http://www.w3.org/2000/svg" width="142" height="37" viewBox="0 0 142 37"><g fill="none" fill-rule="evenodd"><path fill="#273674" d="M52.085 16.834C52.085 7.57 40.473.02 26.15.02 11.827.019.216 7.57.216 16.834l-.003.985c0 9.827 10.148 17.787 25.933 17.787 15.883 0 25.939-7.958 25.939-17.786v-.986"/><path fill="#00B1EA" d="M26.12 32.8c-13.773 0-24.937-7.08-24.937-15.813 0-8.734 11.164-15.814 24.937-15.814 13.772 0 24.937 7.08 24.937 15.814S39.892 32.801 26.12 32.801z"/><path fill="#FFF" d="M17.875 11.837c-.014.024-.262.28-.101.485.393.498 1.609.784 2.838.51.732-.162 1.67-.902 2.579-1.617.984-.775 1.961-1.552 2.944-1.86 1.04-.329 1.706-.188 2.146-.056.483.143 1.051.458 1.957 1.131 1.706 1.272 8.567 7.209 9.753 8.235.955-.428 5.198-2.238 10.964-3.498-.501-3.047-2.371-5.835-5.207-8.118-3.952 1.646-8.783 2.504-13.506.217-.025-.01-2.58-1.209-5.102-1.15-3.748.086-5.372 1.694-7.09 3.396l-2.175 2.325"/><path fill="#FFF" d="M39.712 19.31c-.08-.07-8.067-6.998-9.877-8.346-1.047-.779-1.63-.977-2.241-1.055-.318-.04-.758.018-1.066.101-.841.228-1.942.957-2.92 1.725-1.011.799-1.965 1.551-2.85 1.748-1.13.251-2.512-.046-3.142-.468-.255-.17-.435-.367-.521-.567-.233-.535.196-.962.267-1.034l2.204-2.363c.256-.254.514-.507.778-.757-.71.092-1.368.272-2.008.448-.799.223-1.567.434-2.344.434-.325 0-2.063-.282-2.393-.371-1.994-.541-3.745-1.068-6.36-2.278-3.133 2.312-5.228 5.203-5.833 8.387.45.118 1.175.332 1.48.4 7.09 1.562 9.299 3.172 9.7 3.508a2.367 2.367 0 0 1 1.758-.78 2.365 2.365 0 0 1 1.92.995 2.7 2.7 0 0 1 1.69-.59c.33 0 .67.061 1.015.177.8.272 1.213.8 1.427 1.278.268-.12.598-.209.987-.208.382 0 .779.087 1.18.258 1.306.556 1.51 1.83 1.391 2.789.093-.01.187-.015.282-.015 1.55 0 2.811 1.25 2.81 2.787 0 .476-.122.923-.336 1.316.422.235 1.497.767 2.441.648.754-.094 1.041-.35 1.143-.493.07-.1.145-.215.076-.297l-2-2.204s-.33-.309-.222-.428c.114-.122.317.054.46.173 1.02.843 2.262 2.115 2.262 2.115.021.014.104.175.564.256.395.07 1.095.03 1.58-.365.123-.1.245-.224.348-.353-.009.006-.015.015-.023.018.512-.649-.056-1.306-.056-1.306l-2.336-2.6s-.334-.305-.22-.429c.101-.106.316.055.462.175.74.613 1.785 1.653 2.786 2.625.196.142 1.076.682 2.241-.077.708-.46.85-1.025.83-1.451-.05-.564-.493-.966-.493-.966l-3.191-3.18s-.337-.286-.218-.43c.097-.121.316.054.46.173 1.016.843 3.768 3.343 3.768 3.343.039.028.99.699 2.164-.043.42-.266.689-.667.712-1.133a1.671 1.671 0 0 0-.536-1.29"/><path fill="#FFF" d="M24.236 23.342c-.495-.006-1.036.285-1.107.243-.039-.026.03-.223.077-.337.047-.112.699-2.056-.89-2.73-1.215-.518-1.957.064-2.213.327-.067.069-.097.063-.105-.024-.024-.35-.182-1.297-1.23-1.614-1.5-.455-2.464.582-2.708.956a1.729 1.729 0 0 0-1.717-1.505 1.733 1.733 0 0 0-1.742 1.724c0 .952.779 1.725 1.74 1.725a1.74 1.74 0 0 0 1.203-.481c.01.009.014.025.009.058-.073.426-.208 1.977 1.43 2.608.657.252 1.215.065 1.678-.257.138-.097.16-.056.14.072-.058.399.017 1.253 1.224 1.738.919.37 1.462-.008 1.818-.335.155-.14.198-.117.206.1.044 1.153 1.01 2.069 2.184 2.07a2.177 2.177 0 0 0 2.191-2.167c0-1.2-.979-2.159-2.188-2.171"/><path fill="#273674" fill-rule="nonzero" d="M40.02 18.481c-2.46-2.128-8.146-7.028-9.686-8.174-.88-.656-1.48-1.003-2.006-1.158a3.353 3.353 0 0 0-.986-.152c-.391 0-.812.07-1.251.208-.996.313-1.987 1.094-2.946 1.85l-.05.038c-.893.704-1.816 1.432-2.515 1.587a4.28 4.28 0 0 1-.931.103c-.783 0-1.486-.225-1.75-.558-.043-.055-.015-.144.087-.273l.013-.016 2.165-2.313c1.695-1.68 3.296-3.267 6.982-3.35.06-.002.123-.003.183-.003 2.295.001 4.588 1.02 4.845 1.137 2.152 1.04 4.372 1.568 6.604 1.57 2.326.001 4.726-.57 7.25-1.722a20.023 20.023 0 0 0-.877-.688c-2.217.953-4.33 1.435-6.367 1.434-2.081-.002-4.16-.497-6.18-1.474-.106-.05-2.638-1.234-5.273-1.235l-.208.002c-3.096.072-4.84 1.162-6.013 2.117-1.14.027-2.124.3-3 .542-.78.215-1.456.402-2.114.402-.27 0-.759-.025-.802-.027-.757-.022-4.57-.95-7.602-2.087-.31.217-.608.441-.898.67 3.169 1.287 7.024 2.283 8.24 2.361.34.022.7.06 1.06.06.806 0 1.609-.223 2.386-.438.46-.129.966-.267 1.5-.369-.143.139-.285.279-.427.42l-2.2 2.358c-.172.174-.548.636-.3 1.205.098.23.298.45.578.636.524.35 1.462.587 2.334.587.33 0 .643-.032.93-.096.922-.205 1.89-.969 2.914-1.776.816-.643 1.975-1.459 2.863-1.699.248-.067.553-.108.798-.108.073 0 .142.003.206.012.587.074 1.154.271 2.166 1.025 1.805 1.344 9.793 8.27 9.871 8.34.006.004.515.439.48 1.163-.02.403-.245.762-.639 1.01-.34.215-.692.324-1.048.324a1.735 1.735 0 0 1-.925-.265c-.03-.024-2.766-2.512-3.773-3.347-.16-.132-.316-.25-.474-.25a.261.261 0 0 0-.209.097c-.159.194.019.462.228.638l3.197 3.185c.004.004.398.37.441.859.025.528-.23.97-.759 1.313-.377.247-.759.372-1.133.372-.49 0-.836-.222-.912-.275l-.458-.448c-.838-.817-1.704-1.662-2.337-2.186-.154-.128-.32-.245-.477-.245a.273.273 0 0 0-.201.084c-.072.08-.123.223.057.46a1.6 1.6 0 0 0 .162.179l2.333 2.597c.019.023.48.567.052 1.108l-.082.104c-.07.076-.145.147-.217.208-.398.323-.93.358-1.14.358-.112 0-.221-.01-.315-.027-.23-.04-.385-.104-.46-.192l-.028-.029c-.128-.13-1.304-1.32-2.277-2.126-.128-.107-.288-.24-.453-.24a.279.279 0 0 0-.21.093c-.194.209.096.521.218.636l1.99 2.175a.45.45 0 0 1-.076.133c-.07.097-.312.337-1.034.427a2.015 2.015 0 0 1-.264.015c-.744 0-1.538-.358-1.947-.573a2.91 2.91 0 0 0 .282-1.25c.001-1.623-1.329-2.944-2.966-2.945l-.107.002c.053-.74-.053-2.144-1.506-2.762a3.15 3.15 0 0 0-1.24-.27c-.318 0-.623.053-.91.162a2.486 2.486 0 0 0-1.453-1.222 3.283 3.283 0 0 0-1.066-.187 2.82 2.82 0 0 0-1.658.527 2.522 2.522 0 0 0-1.953-.935c-.663 0-1.3.263-1.773.727-.619-.469-3.076-2.016-9.651-3.496a34.875 34.875 0 0 1-1.497-.409c-.074.353-.13.71-.168 1.07 0 0 1.213.287 1.451.34 6.717 1.48 8.937 3.017 9.312 3.308a2.492 2.492 0 0 0-.194.958c0 1.375 1.128 2.495 2.517 2.497.156 0 .31-.014.462-.042.209 1.013.877 1.78 1.898 2.174.299.114.6.172.897.172.192 0 .385-.023.573-.07.189.474.613 1.066 1.562 1.448.333.133.665.202.989.202.264 0 .522-.046.768-.136a2.976 2.976 0 0 0 4.87.932c.48.264 1.49.742 2.513.744.132 0 .256-.01.38-.024 1.015-.127 1.488-.521 1.705-.827.039-.053.074-.11.104-.169.24.069.503.124.805.125.555 0 1.087-.187 1.624-.576.529-.377.904-.92.958-1.381a.321.321 0 0 0 .003-.02c.178.037.36.055.543.055.57 0 1.132-.176 1.669-.525 1.034-.672 1.214-1.55 1.197-2.125.181.037.366.057.55.057.536 0 1.062-.16 1.563-.477.642-.406 1.028-1.029 1.086-1.753a2.346 2.346 0 0 0-.345-1.415c1.734-.74 5.696-2.173 10.362-3.216-.028-.359-.08-.713-.145-1.066-5.645 1.243-9.858 3.05-10.913 3.515zm-15.784 9.045c-1.096-.001-1.988-.846-2.028-1.922-.003-.092-.012-.337-.222-.337-.086 0-.16.05-.247.128-.24.221-.548.446-.996.446-.203 0-.424-.047-.657-.14-1.158-.466-1.174-1.254-1.127-1.571.013-.084.018-.172-.041-.24l-.071-.064h-.072c-.06 0-.12.024-.202.081-.335.233-.656.346-.982.346-.18 0-.365-.035-.55-.106-1.524-.588-1.403-2.014-1.329-2.443.011-.087-.01-.155-.066-.2l-.108-.088-.1.096c-.298.284-.686.44-1.094.44a1.578 1.578 0 0 1-1.583-1.57c0-.866.712-1.569 1.585-1.568.788 0 1.46.589 1.56 1.37l.055.421.234-.357c.026-.041.666-1 1.841-.999.224 0 .455.036.687.107.938.284 1.097 1.126 1.121 1.477.017.205.164.215.193.215.08 0 .14-.052.182-.095a1.605 1.605 0 0 1 1.166-.488c.276.002.57.066.872.195 1.49.634.814 2.51.806 2.53-.128.311-.133.449-.013.528l.06.028h.043c.067 0 .15-.03.288-.076.203-.069.51-.174.795-.173h.001c1.122.012 2.034.917 2.033 2.016a2.027 2.027 0 0 1-2.034 2.013zM140.457 6.12c-.936-1.163-2.357-1.744-4.264-1.744-1.905 0-3.326.581-4.262 1.744-.937 1.162-1.405 2.536-1.405 4.12 0 1.614.468 2.992 1.405 4.14.936 1.143 2.357 1.718 4.262 1.718 1.907 0 3.328-.575 4.264-1.718.937-1.148 1.404-2.526 1.404-4.14 0-1.584-.467-2.958-1.404-4.12zm-2.32 6.67c-.454.597-1.104.896-1.953.896-.848 0-1.5-.299-1.959-.896-.458-.597-.686-1.448-.686-2.55 0-1.1.228-1.948.686-2.542.458-.594 1.111-.891 1.959-.891.85 0 1.5.297 1.953.891.454.594.682 1.443.682 2.542 0 1.102-.228 1.953-.682 2.55zm-21.604-7.642c-.95-.477-2.036-.718-3.259-.718-1.88 0-3.206.486-3.978 1.457-.485.621-.758 1.413-.821 2.378h2.808c.069-.426.207-.763.414-1.012.29-.337.782-.506 1.478-.506.622 0 1.093.085 1.414.259.32.171.481.484.481.935 0 .371-.208.644-.628.82-.233.101-.62.185-1.163.253l-.995.121c-1.13.141-1.99.378-2.57.71-1.064.607-1.595 1.587-1.595 2.943 0 1.045.329 1.854.991 2.424.659.57 1.498.809 2.51.856 6.35.28 6.279-3.318 6.337-4.066V7.86c0-1.328-.475-2.233-1.424-2.712zm-1.475 6.284c-.02.965-.298 1.63-.834 1.993a3.057 3.057 0 0 1-1.755.548c-.402 0-.742-.11-1.022-.33-.28-.219-.419-.575-.419-1.068 0-.552.228-.96.686-1.224.273-.154.717-.287 1.338-.393l.663-.122c.33-.062.59-.128.78-.2.192-.068.377-.16.563-.276v1.072z"/><path fill="#273674" d="M102.053 6.897c.727 0 1.259.222 1.604.666.236.33.384.7.441 1.11h3.132c-.172-1.566-.725-2.66-1.658-3.28-.937-.616-2.136-.927-3.603-.927-1.726 0-3.08.526-4.06 1.574-.98 1.05-1.47 2.517-1.47 4.403 0 1.67.443 3.032 1.33 4.08.888 1.05 2.273 1.575 4.155 1.575 1.884 0 3.306-.63 4.264-1.887.601-.78.938-1.607 1.01-2.482h-3.123c-.063.578-.245 1.05-.547 1.413-.302.362-.809.544-1.527.544-1.011 0-1.7-.456-2.065-1.373-.2-.488-.301-1.135-.301-1.94 0-.845.1-1.522.3-2.034.381-.96 1.088-1.442 2.118-1.442m-6.454-2.431c-6.434 0-6.054 5.647-6.054 5.647v5.737h2.92v-5.38c0-.882.113-1.535.335-1.96.401-.752 1.183-1.13 2.351-1.13a8.017 8.017 0 0 1 .836.053V4.488c-.13-.009-.214-.012-.25-.016a1.561 1.561 0 0 0-.138-.006"/><path fill="#273674" fill-rule="nonzero" d="M84.873 12.853a2.117 2.117 0 0 1-.4.437c-.412.337-.972.44-1.632.44-.624 0-1.112-.095-1.554-.37-.729-.444-1.138-1.196-1.182-2.298h8.079c.011-.95-.02-1.676-.097-2.182-.134-.862-.43-1.62-.883-2.274a4.515 4.515 0 0 0-1.918-1.627c-.773-.342-1.641-.514-2.606-.514-1.627 0-2.948.508-3.967 1.524-1.018 1.018-1.53 2.476-1.53 4.381 0 2.033.565 3.5 1.694 4.402 1.128.902 2.432 1.354 3.907 1.354 1.788 0 3.18-.535 4.173-1.605.536-.563.871-1.12 1.013-1.668h-3.097zm-3.925-5.39c.411-.418.988-.627 1.732-.627.685 0 1.257.196 1.72.592.462.395.72.975.772 1.737h-4.996c.105-.716.363-1.283.772-1.702z"/><path fill="#273674" d="M76.01 15.849h-2.666V9.19c0-.608-.202-2.054-1.962-2.054-1.173 0-2.022.838-2.022 2.054v6.658h-2.67V9.19c0-.608-.181-2.054-1.94-2.054-1.193 0-2.022.838-2.022 2.054v6.658h-2.669V9.255c0-2.75 1.84-4.827 4.692-4.827 1.415 0 2.567.589 3.316 1.533a4.264 4.264 0 0 1 3.315-1.533c2.911 0 4.629 1.994 4.629 4.827v6.594"/><path fill="#273674" fill-rule="nonzero" d="M129.657.99s-2.94-.312-2.94 2.03l-.003 3.1a3.496 3.496 0 0 0-1.271-1.214c-.522-.293-1.118-.44-1.792-.44-1.459 0-2.621.539-3.494 1.614-.873 1.077-1.307 2.628-1.307 4.503 0 1.628.443 2.962 1.328 4.002.885 1.037 2.621 1.493 4.163 1.493 5.376 0 5.314-4.57 5.314-4.57L129.657.99zm-3.502 11.824c-.426.605-1.052.908-1.872.908-.822 0-1.434-.305-1.836-.914-.403-.61-.605-1.496-.605-2.51 0-.942.197-1.73.595-2.366.395-.635 1.017-.954 1.866-.954a2.23 2.23 0 0 1 1.466.525c.685.578 1.028 1.616 1.028 2.96 0 .962-.215 1.745-.642 2.35z"/><path fill="#FFF" fill-rule="nonzero" d="M63.234 34.22c0 .39-.144.727-.431 1.006-.285.28-.63.42-1.03.42h-1.458V25.59c0-1.956.665-3.18 1.76-4.008.722-.548 1.8-1.07 3.819-1.07 1.363 0 2.96.524 3.822 1.567.968 1.172 1.371 2.478 1.371 4.184 0 1.764-.429 3.188-1.287 4.282-.858 1.065-1.96 1.595-3.305 1.595-.716 0-1.345-.126-1.888-.376-.574-.28-1.03-.714-1.373-1.303v3.76zm4.893-7.832c0-1.092-.214-1.93-.645-2.52-.429-.585-1.044-.882-1.846-.882-.771 0-1.373.297-1.804.883-.4.532-.598 1.374-.598 2.519 0 1.067.213 1.86.643 2.393.428.59 1.045.882 1.846.882.743 0 1.33-.293 1.759-.882.43-.588.645-1.383.645-2.393zm22.307 4.824v-.71c-.506.784-1.189 1.27-2.045 1.467a4.212 4.212 0 0 1-2.55-.211c-.844-.334-1.568-.957-2.173-1.865-.603-.912-.905-2.107-.905-3.59 0-1.731.401-3.138 1.2-4.214.802-1.077 2.09-1.568 3.86-1.616 1.744-.045 2.758.346 3.751 1.091 1.086.818 1.728 2.07 1.728 4.027v5.917c.005 1.883-1.32 5.372-5.48 5.076-2.577-.185-4.008-1.233-4.805-3.607h3.077c.224.39.568.69 1.034.899.461.212.928.266 1.388.169.464-.098.886-.372 1.268-.817.377-.448.595-1.12.652-2.016m-4.807-4.823c0 1.93.563 2.998 1.687 3.21 1.123.206 1.953-.052 2.487-.778.253-.306.435-.79.548-1.446a6.08 6.08 0 0 0 .021-1.95 3.856 3.856 0 0 0-.696-1.721c-.364-.502-.899-.755-1.601-.755-.956 0-1.6.35-1.939 1.047-.34.7-.507 1.497-.507 2.393m-5.363-5.118c-.95-.476-2.037-.717-3.258-.717-1.881 0-3.206.487-3.979 1.457-.484.62-.758 1.413-.821 2.378h2.81c.068-.426.205-.763.413-1.012.29-.337.782-.506 1.477-.506.624 0 1.093.085 1.414.258.32.173.481.484.481.936 0 .371-.208.645-.627.82-.233.101-.62.185-1.163.253l-.996.12c-1.13.142-1.99.38-2.57.71-1.064.607-1.594 1.588-1.594 2.943 0 1.045.328 1.854.99 2.423.66.57 1.498.81 2.511.857 6.348.281 6.277-3.318 6.335-4.066v-4.142c0-1.328-.474-2.231-1.423-2.712m-1.476 6.285c-.018.966-.298 1.629-.832 1.993a3.056 3.056 0 0 1-1.755.547c-.402 0-.742-.11-1.022-.33-.28-.218-.42-.575-.42-1.068 0-.552.229-.96.687-1.223.273-.155.716-.288 1.337-.393l.663-.122c.332-.062.591-.128.778-.2.194-.069.379-.16.564-.276v1.072m25.557-5.372c-.938-1.164-2.359-1.744-4.266-1.744-1.903 0-3.325.58-4.261 1.744-.937 1.162-1.405 2.534-1.405 4.12 0 1.613.468 2.991 1.405 4.139.936 1.142 2.358 1.717 4.26 1.717 1.908 0 3.33-.575 4.267-1.717.935-1.148 1.402-2.526 1.402-4.139 0-1.586-.467-2.958-1.402-4.12m-2.321 6.668c-.453.598-1.104.897-1.952.897-.849 0-1.502-.3-1.959-.897-.46-.597-.687-1.447-.687-2.548 0-1.1.227-1.948.687-2.542.457-.595 1.11-.89 1.959-.89.848 0 1.499.295 1.952.89.455.594.682 1.442.682 2.542 0 1.101-.227 1.951-.682 2.548"/></g></svg>