<svg 
 xmlns="http://www.w3.org/2000/svg"
 xmlns:xlink="http://www.w3.org/1999/xlink"
 width="55px" height="38px">
<path fill-rule="evenodd"  fill="rgb(76, 186, 234)"
 d="M3.075,0.004 L50.923,0.004 C52.622,0.004 54.000,1.412 54.000,3.147 L54.000,34.868 C54.000,36.603 52.622,38.010 50.923,38.010 L3.075,38.010 C1.375,38.010 -0.002,36.603 -0.002,34.868 L-0.002,3.147 C-0.002,1.412 1.375,0.004 3.075,0.004 Z"/>
<text kerning="auto" font-family="Myriad Pro" fill="rgb(0, 0, 0)" transform="matrix( 2, 0, 0, 2,12.201, 23)" font-size="6px"><tspan font-size="6px" font-family="OpenSans" font-weight="bold" fill="#FFFFFF">AMEX</tspan></text>
<path fill-rule="evenodd"  opacity="0.102" fill="rgb(255, 255, 255)"
 d="M3.075,38.010 C1.375,38.010 -0.002,36.603 -0.002,34.868 L-0.002,3.147 C-0.002,1.412 1.375,0.004 3.075,0.004 L50.954,0.004 C52.654,0.004 54.031,1.412 54.031,3.147 "/>
</svg>