<svg id="Layer_1" data-name="Layer 1" xmlns="http://www.w3.org/2000/svg" xmlns:xlink="http://www.w3.org/1999/xlink" viewBox="0 0 672.01 555.99"><defs><style>.cls-1{opacity:0.89;}.cls-2,.cls-4{font-size:349.53px;letter-spacing:-0.01em;}.cls-2,.cls-4,.cls-5,.cls-7{font-family:Impact;}.cls-3{fill:url(#linear-gradient);}.cls-4,.cls-7{fill:none;stroke:#000;stroke-miterlimit:10;}.cls-4{stroke-width:8px;}.cls-5,.cls-7{font-size:190.77px;letter-spacing:-0.01em;}.cls-6{fill:url(#linear-gradient-6);}.cls-7{stroke-width:6px;}</style><linearGradient id="linear-gradient" x1="902.15" y1="294.83" x2="902.15" y2="582.75" gradientUnits="userSpaceOnUse"><stop offset="0" stop-color="#fbfbea"/><stop offset="1" stop-color="#ffc33b"/></linearGradient><linearGradient id="linear-gradient-6" x1="900.39" y1="599.05" x2="900.39" y2="749.87" gradientUnits="userSpaceOnUse"><stop offset="0" stop-color="#f9ebd9"/><stop offset="1" stop-color="#ff6324"/></linearGradient></defs><g class="cls-1"><text class="cls-2" transform="translate(4 317)">S.O.S</text><path class="cls-3" d="M734.88,384.26H668.15V363.78q0-14.34-2.56-18.26t-8.53-3.93a10.84,10.84,0,0,0-9.81,5.3q-3.33,5.3-3.33,16.05,0,13.83,3.74,20.84,3.57,7,20.3,16.89,48,28.47,60.44,46.74t12.46,58.88q0,29.52-6.91,43.52t-26.71,23.47q-19.8,9.47-46.08,9.47-28.85,0-49.24-10.93T585.21,544q-6.32-16.9-6.32-48V478h66.73v33.62q0,15.52,2.82,20t10,4.43q7.17,0,10.67-5.63t3.5-16.72q0-24.4-6.66-31.92-6.82-7.5-33.62-25.09-26.79-17.75-35.5-25.77t-14.42-22.19q-5.71-14.16-5.72-36.18,0-31.74,8.11-46.42t26.2-23q18.09-8.27,43.69-8.27,28,0,47.7,9t26.12,22.79q6.39,13.74,6.39,46.68Z" transform="translate(-564.31 -259.94)"/><path class="cls-3" d="M803.75,520.62v56.32h-52V520.62Z" transform="translate(-564.31 -259.94)"/><path class="cls-3" d="M985.09,462.43q0,41.64-2,59a66,66,0,0,1-12.29,31.66q-10.32,14.34-27.9,22t-41,7.68q-22.2,0-39.85-7.26a66.42,66.42,0,0,1-41.22-53.33q-2.05-17.07-2-59.73V415.15q0-41.64,2-59a66.17,66.17,0,0,1,12.29-31.66q10.33-14.32,27.91-22t41-7.68q22.18,0,39.85,7.25a66.42,66.42,0,0,1,41.22,53.34q2,17.06,2,59.73Zm-71.85-90.8q0-19.29-2.13-24.66t-8.79-5.38a9.81,9.81,0,0,0-8.62,4.35q-3,4.35-3,25.69v129q0,24.06,2,29.69t9.14,5.63q7.34,0,9.38-6.48t2-30.89Z" transform="translate(-564.31 -259.94)"/><path class="cls-3" d="M1052.25,520.62v56.32h-52V520.62Z" transform="translate(-564.31 -259.94)"/><path class="cls-3" d="M1221.65,384.26h-66.73V363.78q0-14.34-2.56-18.26t-8.54-3.93a10.87,10.87,0,0,0-9.81,5.3q-3.33,5.3-3.33,16.05,0,13.83,3.74,20.84,3.57,7,20.31,16.89,48,28.47,60.43,46.74t12.46,58.88q0,29.52-6.91,43.52T1194,573.28q-19.8,9.47-46.08,9.47-28.85,0-49.24-10.93T1072,544q-6.32-16.9-6.31-48V478h66.73v33.62q0,15.52,2.81,20t10,4.43q7.17,0,10.66-5.63t3.5-16.72q0-24.4-6.65-31.92-6.83-7.5-33.62-25.09-26.8-17.75-35.5-25.77t-14.43-22.19q-5.72-14.16-5.71-36.18,0-31.74,8.1-46.42t26.2-23q18.09-8.27,43.69-8.27,28,0,47.7,9t26.12,22.79q6.39,13.74,6.4,46.68Z" transform="translate(-564.31 -259.94)"/><text class="cls-4" transform="translate(4 317)">S.O.S</text></g><g class="cls-1"><text class="cls-5" transform="translate(23.46 489.92)">AVENIDA</text><path class="cls-6" d="M663.39,599.05l22.43,150.82H645.74l-2.11-27.11h-14l-2.36,27.11H586.7l20-150.82Zm-20.78,97q-3-25.62-6-63.34-6,43.32-7.52,63.34Z" transform="translate(-564.31 -259.94)"/><path class="cls-6" d="M783.81,599.05l-20,150.82H704.28L681.63,599.05H723q7.21,62.33,10.3,105.45,3-43.59,6.45-77.4l2.72-28.05Z" transform="translate(-564.31 -259.94)"/><path class="cls-6" d="M788.52,599.05h65.39v30.19H827.73v28.59h24.5v28.69h-24.5v33.16h28.79v30.19h-68Z" transform="translate(-564.31 -259.94)"/><path class="cls-6" d="M953.44,599.05V749.87H919.07l-20.4-68.56v68.56H865.88V599.05h32.79l22,67.91V599.05Z" transform="translate(-564.31 -259.94)"/><path class="cls-6" d="M1006.49,599.05V749.87H967.28V599.05Z" transform="translate(-564.31 -259.94)"/><path class="cls-6" d="M1020.33,599.05h29.34q28.41,0,38.42,2.61t15.23,8.57a27.14,27.14,0,0,1,6.52,13.28q1.31,7.31,1.31,28.73v52.82q0,20.31-1.91,27.15a20.46,20.46,0,0,1-6.66,10.72,27.87,27.87,0,0,1-11.74,5.4q-7,1.53-21,1.54h-49.46Zm39.21,25.81v99.2q8.48,0,10.44-3.4t2-18.49V643.58q0-10.25-.65-13.13a6.24,6.24,0,0,0-3-4.24Q1066,624.86,1059.54,624.86Z" transform="translate(-564.31 -259.94)"/><path class="cls-6" d="M1191.65,599.05l22.43,150.82H1174l-2.1-27.11h-14l-2.36,27.11H1115l20-150.82Zm-20.78,97q-3-25.62-6-63.34-6,43.32-7.53,63.34Z" transform="translate(-564.31 -259.94)"/><text class="cls-7" transform="translate(23.46 489.92)">AVENIDA</text></g></svg>