<svg 
 xmlns="http://www.w3.org/2000/svg"
 xmlns:xlink="http://www.w3.org/1999/xlink"
 width="55px" height="38px">
<path fill-rule="evenodd"  fill="rgb(67, 97, 195)"
 d="M3.075,0.004 L50.923,0.004 C52.622,0.004 54.000,1.412 54.000,3.147 L54.000,34.868 C54.000,36.603 52.622,38.010 50.923,38.010 L3.075,38.010 C1.375,38.010 -0.002,36.603 -0.002,34.868 L-0.002,3.147 C-0.002,1.412 1.375,0.004 3.075,0.004 Z"/>
<path fill-rule="evenodd"  fill="rgb(255, 175, 56)"
 d="M34.033,9.973 C38.457,9.973 42.043,13.557 42.043,17.979 C42.043,22.400 38.457,25.985 34.033,25.985 C29.609,25.985 26.023,22.400 26.023,17.979 C26.023,13.557 29.609,9.973 34.033,9.973 Z"/>
<path fill-rule="evenodd"  fill="rgb(235, 54, 54)"
 d="M20.033,25.985 C15.609,25.985 12.023,22.400 12.023,17.979 C12.023,13.557 15.609,9.973 20.033,9.973 C24.457,9.973 28.043,13.557 28.043,17.979 C28.043,22.400 24.457,25.985 20.033,25.985 Z"/>
<path fill-rule="evenodd"  opacity="0.102" fill="rgb(255, 255, 255)"
 d="M3.075,38.010 C1.375,38.010 -0.002,36.603 -0.002,34.868 L-0.002,3.147 C-0.002,1.412 1.375,0.004 3.075,0.004 L50.954,0.004 C52.654,0.004 54.031,1.412 54.031,3.147 "/>
</svg>