<svg 
 xmlns="http://www.w3.org/2000/svg"
 xmlns:xlink="http://www.w3.org/1999/xlink"
 width="55px" height="38px">
<path fill-rule="evenodd"  fill="rgb(65, 68, 179)"
 d="M3.075,0.004 L50.954,0.004 C52.654,0.004 54.031,1.412 54.031,3.147 L54.031,34.868 C54.031,36.603 52.654,38.010 50.954,38.010 L3.075,38.010 C1.375,38.010 -0.002,36.603 -0.002,34.868 L-0.002,3.147 C-0.002,1.412 1.375,0.004 3.075,0.004 Z"/>
<path fill-rule="evenodd"  fill="rgb(229, 151, 3)"
 d="M3.075,12.004 L50.954,12.004 C52.654,12.004 54.031,13.412 54.031,15.147 L54.031,34.868 C54.031,36.603 52.654,38.010 50.954,38.010 L3.075,38.010 C1.375,38.010 -0.002,36.603 -0.002,34.868 L-0.002,15.147 C-0.002,13.412 1.375,12.004 3.075,12.004 Z"/>
<path fill-rule="evenodd"  fill="rgb(255, 255, 255)"
 d="M0.031,9.969 L54.031,9.969 L54.031,27.969 L0.031,27.969 L0.031,9.969 Z"/>
<text kerning="auto" font-family="Myriad Pro" fill="rgb(0, 0, 0)" transform="matrix( 2, 0, 0, 2,14.095, 24)" font-size="7px"><tspan font-size="7px" font-family="OpenSans" font-weight="bold" font-style="italic" fill="#4144B3">VISA</tspan></text>
<path fill-rule="evenodd"  opacity="0.102" fill="rgb(255, 255, 255)"
 d="M3.075,38.010 C1.375,38.010 -0.002,36.603 -0.002,34.868 L-0.002,3.147 C-0.002,1.412 1.375,0.004 3.075,0.004 L50.954,0.004 C52.654,0.004 54.031,1.412 54.031,3.147 "/>
</svg>