<svg width="142" height="37" viewBox="0 0 142 37" xmlns="http://www.w3.org/2000/svg"><g fill="none"><path d="M48.954 17.354c0-8.746-10.91-15.877-24.367-15.877S.22 8.607.22 17.354v.93c0 9.28 9.536 16.795 24.366 16.795 14.922 0 24.37-7.514 24.37-16.793l-.002-.932z" fill="#2D3277"/><path d="M48.021 17.346c0 8.246-10.49 14.931-23.429 14.931-12.94 0-23.43-6.685-23.43-14.93 0-8.247 10.49-14.932 23.43-14.932s23.43 6.685 23.43 14.931z" fill="#009EE3"/><path d="M1.434 22.438c1.128 2.416 2.257 3.57 2.257 3.57.497-.957.534-1.468 1.076-1.666.79-.287 1.086.122 3.674.466 4.099.548 5.878.704 13.006.07 5.167-.456 1.701-5.998.519-8.964-1.183-2.965-2.419-5.599-3.118-7.104-.698-1.504-1.558-2.996-2.739-4.266-1.18-1.27-3.224-3.313-3.816-3.796-.591-.482-1.611.323-1.988.646-.376.323-2.638 1.34-1.908 2.338 0 0 .35.604.645.812.295.208-1.666-.598-1.666.558 0 1.156 1.8.967 2.311 1.183.51.215 1.021.214 1.585.51.565.296 1.492.672 2.224.645.732-.028 1.004-.403 1.377.564.372.967 1.317 3.171 1.156 5.401-.16 2.23.035 5.24.466 6.34 0 0-8.627-4.055-15.667-2.685-.002 0-.265 3.51.606 5.378z" fill="#FFF"/><path d="M3.8 26.728l-.415-.423c-.048-.049-1.194-1.231-2.34-3.686-.909-1.947-.658-5.446-.647-5.594l.025-.327.321-.063c5.9-1.15 12.755 1.376 15.104 2.356-.293-1.508-.374-3.888-.25-5.62.144-1.988-.63-3.953-1.047-5.009l-.08-.206c-.129-.33-.205-.385-.209-.387-.08.005-.158.016-.236.033a3.5 3.5 0 01-.516.063c-.966.038-2.11-.522-2.438-.694a3.397 3.397 0 00-.822-.274 4.426 4.426 0 01-.73-.22 2.951 2.951 0 00-.508-.092c-.723-.091-2.067-.263-2.067-1.49a.999.999 0 01.353-.81c.224-.168.498-.259.779-.258l-.042-.069a1.09 1.09 0 01-.191-.856C8 2.31 9 1.699 9.662 1.295a4.27 4.27 0 00.365-.235c1.346-1.152 2.124-.99 2.54-.651.615.501 2.695 2.586 3.858 3.835 1.067 1.145 1.961 2.536 2.817 4.377l.128.274c.703 1.514 1.88 4.047 2.999 6.849.173.434.4.933.639 1.46 1.004 2.21 2.256 4.96 1.259 6.666-.479.822-1.413 1.299-2.779 1.421-7.165.64-8.96.478-13.102-.073-.772-.1-1.54-.24-2.297-.42-.675-.154-.847-.183-1.172-.068-.192.07-.265.198-.49.71-.09.204-.201.456-.352.75l-.275.538zm-1.974-4.472a15.74 15.74 0 001.767 2.961c.018-.037.033-.074.05-.11.237-.541.424-.968.981-1.172.575-.21.96-.121 1.658.037.732.174 1.473.31 2.22.407 4.069.541 5.837.697 12.911.067 1.087-.095 1.778-.422 2.113-.997.773-1.326-.376-3.851-1.299-5.88a35.792 35.792 0 01-.657-1.5c-1.108-2.78-2.282-5.295-2.979-6.805l-.129-.274c-.815-1.757-1.663-3.077-2.665-4.154-1.226-1.317-3.236-3.318-3.773-3.755-.213-.174-.79.083-1.437.639a4.53 4.53 0 01-.474.315c-.436.266-1.34.822-1.424 1.24a.234.234 0 00.057.203l.025.038c.122.212.372.574.52.678.186.114.26.346.177.548-.142.332-.485.264-.67.228-.519-.104-.84-.11-.952-.017a.194.194 0 00-.039.146c0 .36.308.51 1.316.639.249.019.494.069.73.149.195.075.396.135.6.178.353.071.696.188 1.018.348.578.303 1.411.617 2.01.596.132-.007.265-.024.396-.05.537-.092 1.014-.092 1.397.887l.08.203c.408 1.039 1.261 3.202 1.103 5.387-.16 2.223.048 5.156.437 6.154l.391 1.004-.973-.457c-.084-.039-8.315-3.855-15.074-2.712-.038.898-.076 3.416.587 4.84l.001-.01z" fill="#2D3277"/><path d="M8.223 4.887c.488.031.967.15 1.413.353.416.2.614.42 1.016.254.059-.025.12-.047.183-.068.929-.337.929-.337 1.588.398.534.595.96.722 1.375.492-.527-.517-1.11-1.023-1.61-1.598-.62-.712-.599-.881-.091-1.62l-.074-.109c-.172.132-.346.26-.514.397-.11.09-.211.195-.316.294-.117-.137-.274-.259-.34-.417-.075-.182-.07-.397-.208-.604l-.098 1.032-.547.064.48.201-.056.347c.559-.377.89-.591 1.106.35-.415.127-.738.183-1.164.284-.294.067-1.166-.842-1.382-1.047" fill="#283277"/><path d="M47.36 22.438c-1.127 2.416-2.252 3.57-2.252 3.57-.497-.957-.534-1.468-1.077-1.666-.789-.287-1.086.122-3.672.466-4.1.548-5.88.704-13.008.07-5.167-.456-1.7-5.998-.518-8.964 1.181-2.965 2.419-5.599 3.117-7.104.699-1.504 1.552-3 2.74-4.27 1.186-1.27 3.224-3.313 3.815-3.795.592-.482 1.613.322 1.989.645.376.324 2.638 1.34 1.908 2.338 0 0-.35.604-.645.813-.296.208 1.665-.598 1.665.558 0 1.156-1.802.967-2.313 1.187-.51.22-1.021.214-1.586.51-.564.296-1.49.672-2.223.645-.732-.028-1.004-.403-1.377.564s-1.317 3.171-1.156 5.401c.16 2.23-.036 5.24-.466 6.34 0 0 9.172-4.136 16.213-2.766 0-.005-.282 3.59-1.154 5.458z" fill="#FFF"/><path d="M44.994 26.728l-.273-.526c-.151-.291-.263-.548-.353-.75-.225-.513-.297-.64-.49-.71-.324-.118-.496-.087-1.17.068-.759.18-1.526.32-2.298.42-4.14.548-5.935.71-13.102.073-1.366-.122-2.3-.6-2.78-1.42-.995-1.711.256-4.46 1.26-6.667.24-.528.468-1.027.64-1.46 1.117-2.805 2.294-5.339 2.998-6.849l.128-.274c.854-1.842 1.75-3.232 2.816-4.377C33.533 3.006 35.613.92 36.229.42c.415-.34 1.193-.503 2.539.65.05.044.216.146.365.235.662.405 1.663 1.017 1.818 1.807.06.3-.01.611-.192.857l-.04.068c.28 0 .554.09.778.26.237.2.367.499.353.809 0 1.227-1.344 1.398-2.067 1.49a2.951 2.951 0 00-.507.091 4.442 4.442 0 01-.73.221 3.418 3.418 0 00-.823.274c-.327.173-1.472.73-2.438.694a3.515 3.515 0 01-.516-.063 1.134 1.134 0 00-.244-.03s-.074.057-.201.384l-.08.206c-.417 1.055-1.188 3.02-1.048 5.008.126 1.735.044 4.128-.252 5.637a43.45 43.45 0 014.712-1.576c5.324-1.448 8.888-1.278 10.94-.877l.377.073-.03.382c-.012.15-.298 3.694-1.193 5.61-1.146 2.455-2.292 3.637-2.34 3.686l-.416.411zm-1.48-2.916c.225 0 .449.042.66.123.557.204.745.631.981 1.172l.05.11a15.74 15.74 0 001.766-2.961c.665-1.426.98-3.963 1.078-4.93-6.776-1.109-15.482 2.768-15.57 2.808l-.96.432.382-.98c.39-.998.598-3.931.438-6.154-.158-2.183.695-4.346 1.105-5.387l.078-.202c.383-.984.86-.984 1.397-.888.13.026.263.043.396.05.599.021 1.431-.293 2.01-.596.323-.16.665-.277 1.018-.348.204-.043.405-.103.6-.178.236-.08.481-.13.73-.149 1.004-.128 1.315-.274 1.315-.64a.194.194 0 00-.039-.144c-.113-.092-.433-.092-.953.016-.183.037-.527.104-.67-.228a.446.446 0 01.178-.548c.148-.104.398-.466.52-.678l.026-.038c.05-.055.07-.13.057-.203-.084-.42-.99-.974-1.424-1.24a4.103 4.103 0 01-.474-.315c-.647-.555-1.225-.811-1.438-.639-.536.438-2.547 2.438-3.773 3.756-1.004 1.077-1.85 2.397-2.665 4.154l-.128.273c-.7 1.506-1.871 4.026-2.98 6.808-.183.456-.412.961-.656 1.499-.923 2.029-2.073 4.555-1.3 5.88.335.575 1.026.902 2.112.998 7.076.63 8.843.473 12.914-.068a21.867 21.867 0 002.219-.406c.408-.09.707-.16 1-.16z" fill="#2D3277"/><path d="M40.571 4.887a4.055 4.055 0 00-1.413.353c-.416.2-.614.42-1.016.254a2.694 2.694 0 00-.182-.068c-.929-.337-.929-.337-1.587.398-.535.595-.962.722-1.376.492.527-.517 1.11-1.023 1.61-1.598.62-.712.6-.881.092-1.62l.074-.109c.171.132.347.26.514.397.111.09.21.195.317.294.116-.137.274-.259.339-.417.075-.182.07-.397.209-.604l.096 1.032.548.064-.48.201.057.347c-.56-.377-.892-.591-1.107.35.415.127.739.183 1.164.284.295.067 1.166-.842 1.382-1.047" fill="#283277"/><path d="M44.81 9.796c2.04 2.216 3.211 4.796 3.211 7.55 0 8.246-10.49 14.931-23.429 14.931-12.94 0-23.43-6.685-23.43-14.93 0-1.744.469-3.418 1.33-4.973l-1.082.075a10.914 10.914 0 00-1.187 4.905v.93c0 9.28 9.536 16.795 24.366 16.795 14.922 0 24.371-7.514 24.371-16.793v-.932c0-2.733-1.066-5.309-2.941-7.558h-1.21zm87.524-1.215c-.881-1.105-2.22-1.657-4.018-1.656-1.797.001-3.136.553-4.017 1.656-.881 1.103-1.322 2.407-1.322 3.913 0 1.532.44 2.842 1.322 3.93.881 1.09 2.22 1.633 4.017 1.632 1.796 0 3.135-.544 4.018-1.631s1.324-2.397 1.322-3.93c0-1.505-.44-2.81-1.322-3.913m-2.183 6.333c-.428.567-1.04.851-1.84.851s-1.413-.284-1.844-.85c-.43-.568-.646-1.375-.646-2.421 0-1.047.215-1.851.646-2.415.432-.563 1.046-.847 1.844-.847s1.412.282 1.84.847c.428.566.64 1.37.64 2.415 0 1.044-.215 1.853-.64 2.42m-20.342-7.26c-.894-.454-1.916-.681-3.067-.682-1.771 0-3.02.461-3.744 1.384-.457.59-.715 1.343-.774 2.259h2.648a1.98 1.98 0 01.39-.962c.273-.32.737-.48 1.392-.48.586 0 1.028.081 1.331.246.303.166.457.457.457.888 0 .353-.196.612-.59.78-.22.096-.586.176-1.096.239l-.938.115c-1.063.135-1.872.36-2.42.675-1.001.576-1.501 1.508-1.501 2.795 0 .991.31 1.76.934 2.3.624.541 1.41.77 2.363.814 5.979.267 5.91-3.15 5.965-3.861v-3.932c0-1.261-.447-2.12-1.34-2.576m-1.39 5.968c-.017.917-.279 1.548-.783 1.894a2.865 2.865 0 01-1.653.52 1.51 1.51 0 01-.963-.314c-.263-.208-.394-.546-.394-1.014 0-.525.215-.912.646-1.163.257-.146.676-.273 1.26-.372l.624-.117c.249-.042.493-.105.73-.189a2.75 2.75 0 00.53-.262l.004 1.017zM96.176 9.319c.684 0 1.187.21 1.51.632.222.312.365.674.415 1.054h2.95c-.162-1.487-.683-2.525-1.562-3.114-.88-.59-2.01-.883-3.392-.881-1.625 0-2.899.498-3.822 1.494-.923.997-1.385 2.39-1.386 4.182 0 1.587.418 2.878 1.254 3.875.836.996 2.141 1.495 3.916 1.495 1.773 0 3.113-.597 4.018-1.791.566-.741.882-1.527.95-2.358h-2.94c-.06.548-.23.997-.517 1.343-.285.345-.76.516-1.436.516-.953 0-1.6-.434-1.944-1.304-.189-.465-.283-1.08-.284-1.843 0-.802.095-1.445.284-1.93.358-.914 1.022-1.37 1.993-1.37M90.098 7.01c-6.056 0-5.7 5.363-5.7 5.363v5.448h2.75v-5.114c0-.836.107-1.46.316-1.86.377-.714 1.115-1.072 2.213-1.073.083 0 .192 0 .326.01.135.012.286.019.457.04V7.03c-.123-.008-.202-.011-.236-.015a1.29 1.29 0 00-.13-.005M80 14.975a2.009 2.009 0 01-.375.415c-.389.32-.913.417-1.538.417-.588 0-1.046-.09-1.46-.351-.686-.422-1.073-1.135-1.113-2.182h7.606c.011-.901-.02-1.592-.09-2.072a5.156 5.156 0 00-.833-2.159 4.258 4.258 0 00-1.805-1.546 5.963 5.963 0 00-2.455-.488c-1.531 0-2.776.482-3.735 1.447-.959.965-1.439 2.352-1.44 4.161 0 1.932.532 3.325 1.595 4.18a5.691 5.691 0 003.678 1.286c1.683 0 2.992-.508 3.927-1.524.504-.533.821-1.063.953-1.584H80zm-3.694-5.118c.385-.398.928-.597 1.629-.597.644 0 1.187.183 1.62.563.434.38.677.926.731 1.648h-4.708c.099-.68.342-1.217.73-1.614m-4.652 7.963h-2.51v-6.323c0-.577-.19-1.952-1.847-1.952-1.105 0-1.904.798-1.904 1.952v6.323h-2.514v-6.323c0-.577-.17-1.952-1.826-1.952-1.123 0-1.904.798-1.904 1.952v6.323h-2.514v-6.263c0-2.61 1.735-4.584 4.417-4.584 1.333 0 2.417.56 3.123 1.461a3.998 3.998 0 013.122-1.46c2.74 0 4.357 1.893 4.357 4.583v6.263z" fill="#2D3277"/><path d="M122.166 3.708s-2.77-.296-2.77 1.927v2.946a3.298 3.298 0 00-1.196-1.154 3.368 3.368 0 00-1.686-.418c-1.375 0-2.47.51-3.288 1.533-.821 1.023-1.23 2.496-1.23 4.278 0 1.546.417 2.812 1.25 3.8.834.985 2.465 1.417 3.92 1.417 5.062 0 5.003-4.34 5.003-4.34l-.003-9.99zm-3.297 11.231c-.401.575-.991.863-1.763.863-.771 0-1.35-.29-1.728-.867-.38-.578-.57-1.42-.57-2.385 0-.895.187-1.644.56-2.247.373-.602.958-.904 1.757-.906.505-.007.996.17 1.38.498.645.548.967 1.535.967 2.812 0 .914-.201 1.657-.603 2.232" fill="#283277"/><path d="M59.39 34.44c.006.362-.14.71-.403.958a1.329 1.329 0 01-.972.4h-1.378v-9.57c0-1.86.628-3.024 1.66-3.812.683-.522 1.699-1.018 3.604-1.018 1.284 0 2.79.499 3.603 1.49.913 1.116 1.293 2.358 1.293 3.982 0 1.678-.405 3.033-1.213 4.074-.81 1.012-1.85 1.518-3.118 1.518a4.181 4.181 0 01-1.78-.358 3.039 3.039 0 01-1.295-1.24v3.576zm4.619-7.45c0-1.04-.203-1.838-.608-2.398-.406-.557-.984-.838-1.735-.838-.73 0-1.297.281-1.702.838-.378.508-.566 1.307-.565 2.397 0 1.015.202 1.77.607 2.278.404.559.985.839 1.74.839.66.02 1.285-.296 1.66-.84.406-.559.608-1.315.608-2.277m21.028 4.59v-.676c-.476.746-1.12 1.209-1.928 1.397a3.944 3.944 0 01-2.403-.202c-.798-.318-1.481-.909-2.05-1.774-.57-.868-.854-2.004-.854-3.415 0-1.648.377-2.985 1.132-4.01.755-1.024 1.969-1.491 3.639-1.537 1.644-.043 2.601.329 3.538 1.038 1.024.778 1.63 1.972 1.63 3.835v5.63c0 1.79-1.245 5.113-5.168 4.828-2.43-.175-3.78-1.172-4.533-3.432h2.902a2.214 2.214 0 002.283 1.016c.437-.091.835-.353 1.195-.777.36-.425.562-1.065.615-1.918m-4.532-4.587c0 1.835.53 2.852 1.592 3.052 1.06.2 1.842-.046 2.344-.74.239-.29.41-.75.516-1.374.106-.614.113-1.24.02-1.856a3.687 3.687 0 00-.655-1.638c-.344-.477-.848-.719-1.511-.719-.9 0-1.51.335-1.827.998a5.205 5.205 0 00-.477 2.277m-5.059-4.873c-.896-.457-1.917-.683-3.072-.683-1.773 0-3.024.462-3.752 1.386-.457.591-.715 1.346-.776 2.262H70.5c.042-.35.177-.681.39-.961.274-.322.738-.482 1.393-.481.589 0 1.03.08 1.334.245.303.166.456.457.456.89 0 .353-.196.612-.591.78-.22.096-.584.176-1.096.24l-.94.117c-1.066.136-1.877.361-2.425.676-1.002.578-1.503 1.512-1.503 2.8 0 .994.312 1.762.934 2.305.622.543 1.414.771 2.368.815 5.987.267 5.92-3.156 5.974-3.868v-3.942c0-1.264-.447-2.125-1.342-2.581m-1.391 5.98c-.018.917-.28 1.552-.785 1.894a2.864 2.864 0 01-1.655.52 1.517 1.517 0 01-.964-.307c-.264-.209-.396-.548-.396-1.017 0-.524.216-.913.648-1.163.257-.148.676-.274 1.261-.375l.625-.115a4.58 4.58 0 00.73-.19 2.74 2.74 0 00.531-.265l.005 1.018zM98.16 22.99c-.884-1.107-2.223-1.66-4.018-1.66-1.796.001-3.135.555-4.018 1.66s-1.325 2.412-1.325 3.92c0 1.534.442 2.846 1.325 3.936.883 1.09 2.222 1.635 4.018 1.635 1.798 0 3.137-.545 4.017-1.635.88-1.09 1.321-2.401 1.322-3.936 0-1.507-.44-2.814-1.322-3.92m-2.191 6.343c-.426.569-1.04.853-1.842.854-.799 0-1.416-.285-1.847-.854-.431-.569-.648-1.376-.648-2.423 0-1.047.215-1.853.648-2.419.433-.566 1.048-.847 1.847-.847.799 0 1.414.282 1.842.847.428.565.639 1.37.639 2.419 0 1.05-.214 1.856-.64 2.423" fill="#FFF"/></g></svg>