<svg xmlns="http://www.w3.org/2000/svg" width="19" height="19" viewBox="0 0 19 19"><g fill="#FFF" fill-rule="evenodd"><path d="M10.034 10.97h-1.37a30.198 30.198 0 01-.005-.36c0-.444.073-.81.22-1.096.147-.286.44-.609.88-.967.441-.358.704-.592.79-.703a.94.94 0 00.199-.58.977.977 0 00-.352-.755c-.234-.21-.55-.314-.948-.314-.383 0-.703.109-.961.327-.258.219-.435.552-.532 1L6.57 7.35c.04-.641.313-1.186.82-1.633.506-.448 1.171-.672 1.995-.672.866 0 1.556.227 2.068.68.512.453.768.98.768 1.582 0 .333-.094.648-.282.945-.188.297-.59.702-1.206 1.214-.319.265-.517.478-.594.639-.077.161-.111.45-.104.865zM8.664 13v-1.51h1.51V13h-1.51z"/><path fill-rule="nonzero" d="M9.5 18.6A9.1 9.1 0 119.5.4a9.1 9.1 0 010 18.2zm0-1.2a7.9 7.9 0 100-15.8 7.9 7.9 0 000 15.8z"/></g></svg>