<?xml version="1.0" encoding="utf-8"?>
<!-- Generator: Adobe Illustrator 21.1.0, SVG Export Plug-In . SVG Version: 6.00 Build 0)  -->
<svg version="1.1" id="Camada_1" xmlns="http://www.w3.org/2000/svg" xmlns:xlink="http://www.w3.org/1999/xlink" x="0px" y="0px"
	 viewBox="0 0 399 48" style="enable-background:new 0 0 399 48;" xml:space="preserve">
<style type="text/css">
	.st0{fill-rule:evenodd;clip-rule:evenodd;}
</style>
<g>
	<path class="st0" d="M344.9,47.3l8.7-12h11.7c1.4,0,2.8,0,4.3,0c1.5,0,2.8,0,3.9,0.1c-0.6-0.8-1.4-1.9-2.3-3.2
		c-0.9-1.3-1.7-2.5-2.5-3.6l-8.3-12.3l-21.8,30.9h-17l29.8-42.1c1-1.3,2.2-2.5,3.7-3.6c1.5-1.1,3.4-1.6,5.6-1.6c2.2,0,4,0.5,5.5,1.5
		c1.5,1,2.7,2.2,3.7,3.7L399,47.3H344.9z M278.3,0.8l20.9,30.9l21.8-30.9h17l-29.8,42.1c-1,1.3-2.3,2.5-3.8,3.6
		c-1.5,1.1-3.3,1.6-5.6,1.6c-2.2,0-4-0.5-5.5-1.5c-1.5-1-2.7-2.2-3.7-3.7L260.7,0.8H278.3z M259.9,0.8l-9.3,12.1H234v34.4h-14.4
		V12.9h-21.8l9.3-12.1H259.9z M157.8,47.3l8.7-12h11.7c1.4,0,2.8,0,4.3,0c1.5,0,2.8,0,3.9,0.1c-0.6-0.8-1.4-1.9-2.3-3.2
		c-0.9-1.3-1.7-2.5-2.5-3.6l-8.3-12.3l-21.8,30.9h-17l29.8-42.1c1-1.3,2.2-2.5,3.7-3.6c1.5-1.1,3.4-1.6,5.6-1.6c2.2,0,4,0.5,5.5,1.5
		c1.5,1,2.7,2.2,3.7,3.7l29.1,42.1H157.8z M133,47.3h-19.3L103.4,35H81.3v12.3H66.9V23.5h40.5c2.2,0,4.1-0.5,5.6-1.4
		c1.5-0.9,2.3-2.2,2.3-3.8c0-1.8-0.7-3.2-2.1-4.1c-1.4-0.9-3.3-1.4-5.8-1.4H66.9l9.4-12.1h29.9c2.6,0,5.4,0.2,8.2,0.7
		c2.8,0.5,5.4,1.4,7.7,2.6c2.3,1.2,4.2,2.9,5.7,5.1c1.5,2.1,2.3,4.9,2.3,8.2c0,1.8-0.3,3.5-0.8,5.1c-0.6,1.6-1.4,3.1-2.4,4.4
		c-1,1.3-2.3,2.4-3.8,3.3c-1.5,0.9-3.2,1.5-5.1,1.9c0.8,0.6,1.7,1.4,2.6,2.3c1,0.9,2.3,2.2,3.9,3.8L133,47.3z M14.5,28.9v6.4h26.5
		c1.6,0,2.7-0.3,3.4-0.8c0.7-0.6,1-1.4,1-2.4c0-1-0.3-1.8-1-2.3c-0.7-0.5-1.8-0.8-3.4-0.8H14.5z M52.5,23.4c2,0.6,3.8,1.8,5.2,3.5
		c1.4,1.8,2.1,4,2.1,6.8c0,1.9-0.3,3.7-0.9,5.4c-0.6,1.6-1.6,3.1-3.1,4.3c-1.4,1.2-3.4,2.2-5.8,2.9c-2.4,0.7-5.5,1-9.1,1H0V19h41.2
		c1.1,0,2-0.2,2.8-0.7c0.8-0.4,1.2-1.3,1.2-2.5c0-1.2-0.4-1.9-1.3-2.4c-0.8-0.4-1.8-0.6-2.8-0.6H0L9.7,0.8h30.8
		c2.8,0,5.3,0.3,7.5,0.8c2.2,0.5,4.2,1.3,5.8,2.4c1.6,1.1,2.8,2.4,3.7,4c0.9,1.6,1.3,3.5,1.3,5.6c0,1.4-0.2,2.6-0.6,3.7
		c-0.4,1.1-0.8,2-1.4,2.8c-0.6,0.8-1.3,1.5-2,2C54,22.7,53.3,23.1,52.5,23.4z"/>
</g>
</svg>
