<?xml version="1.0" encoding="utf-8"?>
<!-- Generator: Adobe Illustrator 21.1.0, SVG Export Plug-In . SVG Version: 6.00 Build 0)  -->
<svg version="1.1" id="Camada_1" xmlns="http://www.w3.org/2000/svg" xmlns:xlink="http://www.w3.org/1999/xlink" x="0px" y="0px"
	 viewBox="0 0 84.4 16.9" style="enable-background:new 0 0 84.4 16.9;" xml:space="preserve">
<style type="text/css">
	.st0{fill-rule:evenodd;clip-rule:evenodd;}
	.st1{fill:none;}
	.st2{fill-rule:evenodd;clip-rule:evenodd;fill:#FFFFFF;}
</style>
<g>
	<path class="st0" d="M75.5,12.3l1.4-2h1.9c0.2,0,0.5,0,0.7,0c0.2,0,0.5,0,0.6,0c-0.1-0.1-0.2-0.3-0.4-0.5c-0.1-0.2-0.3-0.4-0.4-0.6
		l-1.4-2l-3.6,5.1h-2.8l4.9-6.9c0.2-0.2,0.4-0.4,0.6-0.6c0.2-0.2,0.6-0.3,0.9-0.3c0.4,0,0.7,0.1,0.9,0.2c0.2,0.2,0.4,0.4,0.6,0.6
		l4.8,6.9H75.5z M64.5,4.6L68,9.7l3.6-5.1h2.8l-4.9,6.9c-0.2,0.2-0.4,0.4-0.6,0.6c-0.2,0.2-0.5,0.3-0.9,0.3c-0.4,0-0.7-0.1-0.9-0.2
		c-0.2-0.2-0.4-0.4-0.6-0.6l-4.8-6.9H64.5z M61.5,4.6l-1.5,2h-2.7v5.7h-2.4V6.6h-3.6l1.5-2H61.5z M44.7,12.3l1.4-2h1.9
		c0.2,0,0.5,0,0.7,0c0.2,0,0.5,0,0.6,0c-0.1-0.1-0.2-0.3-0.4-0.5c-0.1-0.2-0.3-0.4-0.4-0.6l-1.4-2l-3.6,5.1h-2.8l4.9-6.9
		c0.2-0.2,0.4-0.4,0.6-0.6c0.2-0.2,0.6-0.3,0.9-0.3c0.4,0,0.7,0.1,0.9,0.2c0.2,0.2,0.4,0.4,0.6,0.6l4.8,6.9H44.7z M40.6,12.3h-3.2
		l-1.7-2h-3.6v2h-2.4V8.4h6.7c0.4,0,0.7-0.1,0.9-0.2c0.3-0.2,0.4-0.4,0.4-0.6c0-0.3-0.1-0.5-0.3-0.7c-0.2-0.1-0.5-0.2-1-0.2h-6.7
		l1.5-2h4.9c0.4,0,0.9,0,1.4,0.1C38,4.8,38.4,5,38.8,5.2c0.4,0.2,0.7,0.5,0.9,0.8c0.2,0.4,0.4,0.8,0.4,1.3c0,0.3,0,0.6-0.1,0.8
		c-0.1,0.3-0.2,0.5-0.4,0.7c-0.2,0.2-0.4,0.4-0.6,0.5c-0.2,0.1-0.5,0.3-0.8,0.3c0.1,0.1,0.3,0.2,0.4,0.4c0.2,0.2,0.4,0.4,0.6,0.6
		L40.6,12.3z M21.1,9.3v1.1h4.4c0.3,0,0.4,0,0.6-0.1c0.1-0.1,0.2-0.2,0.2-0.4c0-0.2-0.1-0.3-0.2-0.4c-0.1-0.1-0.3-0.1-0.6-0.1H21.1z
		 M27.4,8.3c0.3,0.1,0.6,0.3,0.9,0.6c0.2,0.3,0.3,0.7,0.3,1.1c0,0.3,0,0.6-0.1,0.9c-0.1,0.3-0.3,0.5-0.5,0.7c-0.2,0.2-0.6,0.4-1,0.5
		c-0.4,0.1-0.9,0.2-1.5,0.2h-6.7V7.6h6.8c0.2,0,0.3,0,0.5-0.1c0.1-0.1,0.2-0.2,0.2-0.4c0-0.2-0.1-0.3-0.2-0.4
		c-0.1-0.1-0.3-0.1-0.5-0.1h-6.8l1.6-2h5.1c0.5,0,0.9,0,1.2,0.1C27,4.8,27.3,5,27.6,5.2c0.3,0.2,0.5,0.4,0.6,0.7
		c0.1,0.3,0.2,0.6,0.2,0.9c0,0.2,0,0.4-0.1,0.6c-0.1,0.2-0.1,0.3-0.2,0.5C28,7.9,27.9,8,27.8,8.1C27.6,8.2,27.5,8.3,27.4,8.3z"/>
	<g>
		<polygon class="st0" points="8.4,9.5 5.4,1.7 6.8,8.8 		"/>
		<polygon class="st1" points="8.4,9.5 5.4,1.7 6.8,8.8 		"/>
		<polygon class="st2" points="8.4,9.5 5.4,1.7 9.2,7.8 		"/>
		<polygon class="st1" points="8.4,9.5 5.4,1.7 9.2,7.8 		"/>
		<polygon class="st0" points="7.7,9.4 10.9,1.6 7,7.6 		"/>
		<polygon class="st1" points="7.7,9.4 10.9,1.6 7,7.6 		"/>
		<polygon class="st2" points="7.7,9.4 10.9,1.6 9.4,8.8 		"/>
		<polygon class="st1" points="7.7,9.4 10.9,1.6 9.4,8.8 		"/>
		<polygon class="st0" points="7.6,9 14.9,5.5 8.2,7.2 		"/>
		<polygon class="st1" points="7.6,9 14.9,5.5 8.2,7.2 		"/>
		<polygon class="st2" points="7.6,9 14.9,5.5 9.2,9.7 		"/>
		<polygon class="st1" points="7.6,9 14.9,5.5 9.2,9.7 		"/>
		<polygon class="st0" points="7.5,8.3 14.9,11.5 9.2,7.5 		"/>
		<polygon class="st1" points="7.5,8.3 14.9,11.5 9.2,7.5 		"/>
		<polygon class="st2" points="7.5,8.3 14.9,11.5 8.1,10 		"/>
		<polygon class="st1" points="7.5,8.3 14.9,11.5 8.1,10 		"/>
		<polygon class="st0" points="7.6,7.7 10.8,15.4 9.3,8.4 		"/>
		<polygon class="st1" points="7.6,7.7 10.8,15.4 9.3,8.4 		"/>
		<polygon class="st2" points="7.6,7.7 10.8,15.4 6.9,9.4 		"/>
		<polygon class="st1" points="7.6,7.7 10.8,15.4 6.9,9.4 		"/>
		<polygon class="st0" points="8.3,7.6 5.4,15.5 9,9.4 		"/>
		<polygon class="st1" points="8.3,7.6 5.4,15.5 9,9.4 		"/>
		<polygon class="st2" points="8.3,7.6 5.4,15.5 6.6,8.3 		"/>
		<polygon class="st1" points="8.3,7.6 5.4,15.5 6.6,8.3 		"/>
		<polygon class="st0" points="8.8,8.3 1.3,11.4 8.1,10.1 		"/>
		<polygon class="st1" points="8.8,8.3 1.3,11.4 8.1,10.1 		"/>
		<polygon class="st2" points="8.8,8.3 1.3,11.4 7.2,7.5 		"/>
		<polygon class="st1" points="8.8,8.3 1.3,11.4 7.2,7.5 		"/>
		<polygon class="st0" points="8.4,8.8 1.1,5.4 6.7,9.5 		"/>
		<polygon class="st1" points="8.4,8.8 1.1,5.4 6.7,9.5 		"/>
		<polygon class="st2" points="8.4,8.8 1.1,5.4 7.8,7 		"/>
		<polygon class="st1" points="8.4,8.8 1.1,5.4 7.8,7 		"/>
		<polygon class="st0" points="8,8.4 13.8,2.6 8.1,6.5 		"/>
		<polygon class="st1" points="8,8.4 13.8,2.6 8.1,6.5 		"/>
		<polygon class="st2" points="8,8.4 13.8,2.6 9.8,8.5 		"/>
		<polygon class="st1" points="8,8.4 13.8,2.6 9.8,8.5 		"/>
		<polygon class="st0" points="8,8.4 2.3,2.5 6.2,8.4 		"/>
		<polygon class="st1" points="8,8.4 2.3,2.5 6.2,8.4 		"/>
		<polygon class="st2" points="8,8.4 2.3,2.5 8.1,6.5 		"/>
		<polygon class="st1" points="8,8.4 2.3,2.5 8.1,6.5 		"/>
		<polygon class="st0" points="8,8.4 2.4,14.4 8.1,10.3 		"/>
		<polygon class="st1" points="8,8.4 2.4,14.4 8.1,10.3 		"/>
		<polygon class="st2" points="8,8.4 2.4,14.4 6.2,8.4 		"/>
		<polygon class="st1" points="8,8.4 2.4,14.4 6.2,8.4 		"/>
		<polygon class="st0" points="8,8.4 13.8,14.3 9.9,8.4 		"/>
		<polygon class="st1" points="8,8.4 13.8,14.3 9.9,8.4 		"/>
		<polygon class="st2" points="8,8.4 13.8,14.3 8,10.3 		"/>
		<polygon class="st1" points="8,8.4 13.8,14.3 8,10.3 		"/>
		<polygon class="st0" points="8,8.4 8.1,0 6.7,7.1 		"/>
		<polygon class="st1" points="8,8.4 8.1,0 6.7,7.1 		"/>
		<polygon class="st2" points="8,8.4 8.1,0 9.4,7.2 		"/>
		<polygon class="st1" points="8,8.4 8.1,0 9.4,7.2 		"/>
		<polygon class="st0" points="8,8.4 0,8.5 6.8,9.8 		"/>
		<polygon class="st1" points="8,8.4 0,8.5 6.8,9.8 		"/>
		<polygon class="st2" points="8,8.4 0,8.5 6.8,7.1 		"/>
		<polygon class="st1" points="8,8.4 0,8.5 6.8,7.1 		"/>
		<polygon class="st0" points="8,8.4 8.1,16.9 9.3,9.8 		"/>
		<polygon class="st1" points="8,8.4 8.1,16.9 9.3,9.8 		"/>
		<polygon class="st2" points="8,8.4 8.1,16.9 6.7,9.7 		"/>
		<polygon class="st1" points="8,8.4 8.1,16.9 6.7,9.7 		"/>
		<polygon class="st0" points="8,8.4 16.1,8.5 9.3,7.1 		"/>
		<polygon class="st1" points="8,8.4 16.1,8.5 9.3,7.1 		"/>
		<polygon class="st2" points="8,8.4 16.1,8.5 9.2,9.8 		"/>
		<polygon class="st1" points="8,8.4 16.1,8.5 9.2,9.8 		"/>
	</g>
</g>
</svg>
