<svg width="102" height="27" viewBox="0 0 102 27" fill="none" xmlns="http://www.w3.org/2000/svg">
<path d="M57.5487 26.3018H62.1002C62.1445 26.3049 62.1889 26.2991 62.2308 26.2845C62.2727 26.27 62.3112 26.2471 62.344 26.2173C62.3768 26.1875 62.4031 26.1513 62.4214 26.111C62.4397 26.0708 62.4496 26.0272 62.4504 25.983V13.4526C62.4504 9.89934 64.2016 8.02707 67.225 8.02707C70.2484 8.02707 71.9676 9.89934 71.9676 13.4526V25.9845C71.9685 26.0288 71.9784 26.0723 71.9967 26.1126C72.015 26.1529 72.0413 26.1891 72.0741 26.2189C72.1068 26.2487 72.1454 26.2716 72.1873 26.2861C72.2292 26.3006 72.2736 26.3065 72.3179 26.3034H76.8694C76.9136 26.3065 76.9581 26.3006 77 26.2861C77.0419 26.2716 77.0804 26.2487 77.1132 26.2189C77.1459 26.1891 77.1723 26.1529 77.1906 26.1126C77.2089 26.0723 77.2187 26.0288 77.2196 25.9845V13.4845C77.2196 8.12192 74.2282 3.42651 67.2242 3.42651C60.2203 3.42651 57.1985 8.12192 57.1985 13.4845V25.9845C57.1996 26.0286 57.2096 26.072 57.228 26.1121C57.2464 26.1522 57.2728 26.1882 57.3055 26.2179C57.3382 26.2475 57.3767 26.2703 57.4185 26.2847C57.4603 26.2991 57.5046 26.3049 57.5487 26.3018Z" fill="#00A868"/>
<path d="M26.2278 26.5879C27.883 26.5879 28.9649 26.3974 29.4423 26.2069C29.5135 26.1786 29.5752 26.1308 29.6203 26.069C29.6655 26.0072 29.6922 25.934 29.6974 25.8578V22.1117C29.6974 21.8893 29.6014 21.7626 29.3152 21.7626C29.0921 21.7626 28.4556 21.8893 27.9462 21.8893C25.9727 21.8893 25.1139 21.16 25.1139 19.4464V8.88389H29.3152C29.4078 8.88306 29.4964 8.84601 29.5619 8.78072C29.6274 8.71543 29.6646 8.62711 29.6654 8.53478V4.44195C29.6646 4.34961 29.6274 4.2613 29.5619 4.19601C29.4964 4.13072 29.4078 4.09367 29.3152 4.09284H24.9548V0.5396C24.9548 0.158612 24.7949 0 24.5086 0H20.2114C19.8619 0 19.7028 0.159409 19.7028 0.5396V19.9876C19.7028 24.7156 22.344 26.5879 26.2278 26.5879Z" fill="#00A868"/>
<path d="M7.95871 26.8413C13.0835 26.8413 16.7442 23.7002 16.7442 19.6073C16.7442 15.0068 13.6881 13.6749 9.51879 12.7862L7.44935 12.3423C5.89007 11.9932 5.03047 11.2631 5.03047 10.026C5.03047 8.43992 6.62173 7.58309 8.81832 7.58309C11.9057 7.58309 14.0063 8.97872 14.3246 8.97872C14.413 8.97286 14.4982 8.94325 14.5712 8.89301C14.6441 8.84277 14.702 8.77378 14.7388 8.69338L15.5664 5.61598C15.7263 5.20311 15.6935 5.10826 15.4065 4.94965C13.5601 3.99797 11.5866 3.45837 8.78553 3.45837C3.59753 3.45837 0 6.44092 0 10.407C0 14.1532 2.89706 16.2127 7.03674 17.1022L9.13737 17.5462C10.8246 17.8953 11.7761 18.5616 11.7761 19.9891C11.7761 21.4485 10.6303 22.7174 7.92433 22.7174C4.1045 22.7174 1.49451 21.1951 1.0811 21.1951C0.826017 21.1951 0.730863 21.3218 0.635707 21.7339L0.0943557 24.3043C-0.0655702 24.8432 0.0943561 25.1923 0.444594 25.3509C1.75039 26.0802 5.31514 26.8413 7.95871 26.8413Z" fill="#00A868"/>
<path d="M42.6844 22.4313C39.342 22.4313 36.2874 19.9246 36.2874 15.1973C36.2874 10.47 39.3428 8.02388 42.6844 8.02388C46.058 8.02388 49.0503 10.4668 49.0503 15.1973C49.0503 19.9565 46.058 22.4313 42.6844 22.4313ZM42.6844 27C49.3685 27 54.2383 22.0192 54.2383 15.1973C54.2383 8.37538 49.3685 3.42651 42.6844 3.42651C36.0315 3.42651 31.1298 8.37618 31.1298 15.1973C31.1298 22.0184 36.0315 27 42.6844 27Z" fill="#00A868"/>
<path d="M102 14.9438C102 7.92983 97.9571 3.42651 91.5248 3.42651C85.4772 3.42651 80.2573 8.05895 80.2573 15.1025C80.2573 22.6218 85.6044 27 91.3337 27C96.1403 27 98.9134 25.1118 100.629 22.8123C100.96 22.3667 101.028 22.1747 101.028 22.0503C101.028 21.926 100.948 21.8287 100.66 21.5721L98.6543 19.8274C98.1746 19.4153 98.0146 19.2878 97.8547 19.2878C97.6948 19.2878 97.5996 19.3834 97.4725 19.542C96.1035 21.3824 94.194 22.4289 91.616 22.4289C88.3639 22.4289 86.1969 20.2267 85.6468 16.6543H100.335C101.359 16.6567 102 16.3355 102 14.9438ZM91.3361 7.83658C94.8097 7.83658 96.6481 10.1727 96.748 12.7544H85.7243C86.3281 9.98223 88.216 7.83658 91.3361 7.83658Z" fill="#00A868"/>
</svg>
