<svg width="49" height="48" viewBox="0 0 49 48" xmlns="http://www.w3.org/2000/svg" xmlns:xlink="http://www.w3.org/1999/xlink"><defs><circle id="a" cx="24" cy="24" r="24"/></defs><g transform="translate(.883)" fill="none" fill-rule="evenodd"><mask id="b" fill="#fff"><use xlink:href="#a"/></mask><use fill-opacity=".1" fill="#009EE3" xlink:href="#a"/><g mask="url(#b)" fill="#009EE3"><path d="M28.3 24.642l5.45 1.818v5.04a2.25 2.25 0 01-2.25 2.25H30c-8.698 0-15.75-7.052-15.75-15.75v-1.5a2.25 2.25 0 012.25-2.25h5.04l1.82 5.453-1.601 1.6a5.25 5.25 0 004.94 4.938l1.6-1.599zm-.99 3.108H27A6.75 6.75 0 0120.25 21v-.311l1.394-1.392-1.184-3.547H16.5a.75.75 0 00-.75.75V18c0 7.87 6.38 14.25 14.25 14.25h1.5a.75.75 0 00.75-.75v-3.96l-3.546-1.182-1.394 1.392z"/></g></g></svg>