<svg width="48" height="48" viewBox="0 0 48 48" xmlns="http://www.w3.org/2000/svg" xmlns:xlink="http://www.w3.org/1999/xlink"><defs><circle id="a" cx="24" cy="24" r="24"/></defs><g fill="none" fill-rule="evenodd"><mask id="b" fill="#fff"><use xlink:href="#a"/></mask><use fill-opacity=".1" fill="#009EE3" xlink:href="#a"/><g mask="url(#b)" fill="#009EE3"><path d="M24 14.25A6.75 6.75 0 0130.75 21v2.536l3 1.5v4.961l-5.278.001a4.535 4.535 0 01-8.944 0H14.25v-4.962l3-1.5V21A6.75 6.75 0 0124 14.25zm2.94 15.748h-5.88a3.035 3.035 0 005.88 0zM24 15.75A5.25 5.25 0 0018.75 21v3.464l-3 1.5v2.533h16.5v-2.533l-3-1.5V21c0-2.9-2.35-5.25-5.25-5.25z"/></g></g></svg>