<svg width="48" height="48" viewBox="0 0 48 48" xmlns="http://www.w3.org/2000/svg" xmlns:xlink="http://www.w3.org/1999/xlink"><defs><circle id="a" cx="24" cy="24" r="24"/></defs><g fill="none" fill-rule="evenodd"><mask id="b" fill="#fff"><use xlink:href="#a"/></mask><use fill-opacity=".1" fill="#009EE3" xlink:href="#a"/><g mask="url(#b)" fill="#009EE3"><path d="M17.25 30.75H16a1.95 1.95 0 01-1.95-1.95V15.995a1.95 1.95 0 011.95-1.95h15.804a1.95 1.95 0 011.95 1.95V28.8a1.95 1.95 0 01-1.95 1.95h-9.075l-5.479 3.651V30.75zm5.025-1.5h9.529a.45.45 0 00.45-.45V15.995a.45.45 0 00-.45-.45H16a.45.45 0 00-.45.45V28.8c0 .249.201.45.45.45h2.75v2.349l3.525-2.349z"/></g></g></svg>